<svg xmlns="http://www.w3.org/2000/svg" viewBox="0 0 480 420" width="480" height="420" role="img" aria-labelledby="title500 desc500">
<title id="title500">A shattered Triforce</title>
<desc id="desc500">Two intact golden triangles of the Triforce with the third broken apart into fragments, sparks, and drifting debris.</desc>
<defs>
    <radialGradient id="bgGlow" cx="50%" cy="46%" r="65%">
        <stop offset="0%" stop-color="#2a1f10"/>
        <stop offset="100%" stop-color="#140d08"/>
    </radialGradient>
    <radialGradient id="triGlow" cx="50%" cy="50%" r="50%">
        <stop offset="0%" stop-color="#6b5320" stop-opacity="0.85"/>
        <stop offset="100%" stop-color="#6b5320" stop-opacity="0"/>
    </radialGradient>
    <linearGradient id="goldGrad" x1="0" y1="0" x2="0" y2="1">
        <stop offset="0%" stop-color="#f7ebc7"/>
        <stop offset="100%" stop-color="#a88742"/>
    </linearGradient>
</defs>

<rect x="0" y="0" width="480" height="420" rx="20" fill="url(#bgGlow)"/>
<circle cx="240" cy="210" r="170" fill="url(#triGlow)"/>

<path d="M240,60 L228,110" stroke="#3a2a12" stroke-width="1.5" opacity="0.5"/>
<path d="M120,150 L165,168" stroke="#3a2a12" stroke-width="1.5" opacity="0.5"/>
<path d="M360,150 L315,168" stroke="#3a2a12" stroke-width="1.5" opacity="0.5"/>
<path d="M140,340 L178,305" stroke="#3a2a12" stroke-width="1.5" opacity="0.5"/>

<circle cx="90" cy="90" r="2.5" fill="#e8c66a" opacity="0.5"/>
<circle cx="410" cy="300" r="2" fill="#e8c66a" opacity="0.4"/>
<circle cx="100" cy="330" r="2" fill="#e8c66a" opacity="0.4"/>

<polygon points="240,70 320,210 160,210" fill="url(#goldGrad)" stroke="#5c4126" stroke-width="3"/>
<polygon points="160,210 240,350 80,350" fill="url(#goldGrad)" stroke="#5c4126" stroke-width="3"/>

<polygon points="320,140 400,280 240,280" fill="none" stroke="#a88742" stroke-width="2" stroke-dasharray="6,6" opacity="0.4"/>

<path d="M320,140 L305,175 L330,190" fill="none" stroke="#e8925a" stroke-width="2"/>
<path d="M240,280 L280,255 L300,225" fill="none" stroke="#e8925a" stroke-width="2"/>

<polygon points="330,190 372,175 385,215 345,228" fill="url(#goldGrad)" stroke="#5c4126" stroke-width="2"/>
<polygon points="300,225 335,215 325,255 292,258" fill="url(#goldGrad)" stroke="#5c4126" stroke-width="2"/>

<g transform="translate(410,190) rotate(18)">
    <polygon points="-20,-14 22,-10 12,20 -18,14" fill="url(#goldGrad)" stroke="#5c4126" stroke-width="1.5"/>
</g>
<g transform="translate(440,150) rotate(-25)" opacity="0.6">
    <polygon points="-12,-9 14,-6 8,12 -12,9" fill="url(#goldGrad)" stroke="#5c4126" stroke-width="1.2"/>
</g>
<polygon points="460,120 468,116 470,126 462,128" fill="#e8c66a" opacity="0.35"/>

<circle cx="352" cy="200" r="2.5" fill="#f7ebc7"/>
<circle cx="365" cy="210" r="1.8" fill="#f7ebc7"/>
<circle cx="340" cy="230" r="2" fill="#f7ebc7"/>
<line x1="352" y1="200" x2="362" y2="190" stroke="#f7ebc7" stroke-width="1.5"/>
<line x1="352" y1="200" x2="345" y2="188" stroke="#f7ebc7" stroke-width="1.5"/>
</svg>
